<?xml version="1.0" standalone="no"?>
<!DOCTYPE svg PUBLIC "-//W3C//DTD SVG 20010904//EN"
 "http://www.w3.org/TR/2001/REC-SVG-20010904/DTD/svg10.dtd">
<svg version="1.0" xmlns="http://www.w3.org/2000/svg"
 width="400.000000pt" height="400.000000pt" viewBox="0 0 400.000000 400.000000"
 preserveAspectRatio="xMidYMid meet">
<metadata>
Created by potrace 1.14, written by Peter Selinger 2001-2017
</metadata>
<g transform="translate(0.000000,400.000000) scale(0.100000,-0.100000)"
fill="#000000" stroke="none">
<path d="M1229 3418 c-1 -40 -1 -90 -1 -110 l1 -38 -114 0 -114 0 -3 -112 -3
-113 -80 -2 c-44 -1 -92 -2 -107 -2 l-28 -1 0 -115 0 -115 110 0 110 0 0 115
0 114 113 3 112 3 2 100 c0 55 1 103 2 108 1 4 353 6 783 5 l782 -3 1 -105 0
-105 113 -3 112 -3 0 -114 0 -115 110 0 c107 0 110 -1 111 -22 1 -28 1 -388 0
-405 -1 -10 -56 -13 -223 -15 l-223 -3 0 -110 0 -110 113 -3 112 -3 0 -109 c0
-98 2 -110 18 -111 9 -1 57 -1 105 -1 68 0 90 -3 94 -14 3 -8 6 -58 7 -112 l1
-97 113 -3 112 -3 0 116 0 115 110 0 110 0 0 110 0 110 115 0 115 0 0 115 0
115 -225 0 -225 0 0 225 0 225 -115 0 -115 0 0 110 0 110 -37 1 c-21 0 -69 1
-108 2 l-70 2 -3 113 -3 112 -109 0 -110 0 0 110 0 110 -785 0 -785 0 -1 -72z"/>
<path d="M1670 2705 l0 -115 -110 0 -110 0 0 -675 0 -675 110 0 110 0 1 58 c0
31 1 82 2 112 l2 55 113 3 112 3 0 -116 0 -115 110 0 c98 0 110 2 111 18 1 9
2 60 3 112 l1 95 113 3 112 3 0 -116 0 -115 110 0 110 0 0 675 0 675 -110 0
-110 0 0 115 0 115 -340 0 -340 0 0 -115z"/>
<path d="M550 2260 l0 -110 -115 0 -115 0 0 -115 0 -115 -110 0 -110 0 0 -115
0 -115 225 0 225 0 0 -225 0 -225 115 0 115 0 0 -110 0 -110 110 0 110 0 0
-115 0 -115 110 0 110 0 0 -110 0 -110 785 0 784 0 3 108 3 107 113 3 112 3 0
114 0 115 110 0 110 0 0 115 0 115 -110 0 -110 0 0 -115 0 -114 -112 -3 -113
-3 0 -105 -1 -105 -782 -3 c-622 -2 -782 0 -783 10 -1 7 -2 56 -3 108 l-1 95
-112 3 -113 3 0 114 0 115 -110 0 -110 0 -1 48 c-1 63 -1 330 0 365 l1 27 219
0 219 0 4 23 c3 17 2 165 -1 200 -1 4 -50 7 -111 7 l-110 0 0 115 0 115 -110
0 c-107 0 -110 1 -111 23 -1 12 -2 60 -3 107 l-1 85 -112 3 -113 3 0 -111z"/>
</g>
</svg>
